<svg id="Capa_1" data-name="Capa 1" xmlns="http://www.w3.org/2000/svg" viewBox="0 0 14.95 4.77"><defs><style>.cls-1{fill:#279da4;}.cls-2{fill:#36436e;}</style></defs><title>Sin título-2</title><path id="capsula_verde" class="cls-1" d="M13.08,5.93H8.39a.7.7,0,0,1,.24.53V7.61h1.63a.7.7,0,1,1,0,1.4H8.63v1.13a.7.7,0,0,1-.28.56h4.73a2.39,2.39,0,0,0,2.38-2.38h0A2.39,2.39,0,0,0,13.08,5.93Z" transform="translate(-0.51 -5.93)"/><path id="capsula_azuldark" class="cls-2" d="M7.24,10.14V9H5.61a.7.7,0,1,1,0-1.4H7.24V6.45a.69.69,0,0,1,.24-.52H2.89A2.39,2.39,0,0,0,.51,8.32h0A2.39,2.39,0,0,0,2.89,10.7H7.52A.7.7,0,0,1,7.24,10.14Z" transform="translate(-0.51 -5.93)"/></svg>
